<svg width="31" height="31" viewBox="0 0 31 31" fill="none" xmlns="http://www.w3.org/2000/svg">
<path d="M10.4484 17.6521C12.2127 17.6521 13.6266 19.0798 13.6266 20.8566V25.1222C13.6266 26.8865 12.2127 28.3255 10.4484 28.3255H6.21903C4.46723 28.3255 3.04077 26.8865 3.04077 25.1222V20.8566C3.04077 19.0798 4.46723 17.6521 6.21903 17.6521H10.4484ZM24.8883 17.6521C26.6401 17.6521 28.0665 19.0798 28.0665 20.8566V25.1222C28.0665 26.8865 26.6401 28.3255 24.8883 28.3255H20.6589C18.8946 28.3255 17.4807 26.8865 17.4807 25.1222V20.8566C17.4807 19.0798 18.8946 17.6521 20.6589 17.6521H24.8883ZM10.4484 3.30023C12.2127 3.30023 13.6266 4.73921 13.6266 6.50477V10.7704C13.6266 12.5472 12.2127 13.9737 10.4484 13.9737H6.21903C4.46723 13.9737 3.04077 12.5472 3.04077 10.7704V6.50477C3.04077 4.73921 4.46723 3.30023 6.21903 3.30023H10.4484ZM24.8883 3.30023C26.6401 3.30023 28.0665 4.73921 28.0665 6.50477V10.7704C28.0665 12.5472 26.6401 13.9737 24.8883 13.9737H20.6589C18.8946 13.9737 17.4807 12.5472 17.4807 10.7704V6.50477C17.4807 4.73921 18.8946 3.30023 20.6589 3.30023H24.8883Z" fill="#EFF2F4"/>
</svg>
