<svg width="31" height="31" viewBox="0 0 31 31" fill="none" xmlns="http://www.w3.org/2000/svg">
<path d="M11.9685 26.4833V22.6572C11.9685 21.6806 12.766 20.8888 13.7499 20.8888H17.3463C17.8187 20.8888 18.2718 21.0751 18.6059 21.4068C18.94 21.7384 19.1277 22.1882 19.1277 22.6572V26.4833C19.1247 26.8894 19.2851 27.2798 19.5733 27.568C19.8614 27.8561 20.2536 28.0182 20.6626 28.0182H23.1162C24.2622 28.0212 25.3622 27.5713 26.1735 26.7679C26.9849 25.9646 27.4409 24.8737 27.4409 23.7361V12.8362C27.4409 11.9173 27.0305 11.0456 26.3205 10.4561L17.9737 3.83827C16.5218 2.67795 14.4414 2.71541 13.0328 3.92725L4.87651 10.4561C4.13291 11.0282 3.68847 11.9025 3.6665 12.8362V23.725C3.6665 26.0961 5.60271 28.0182 7.99115 28.0182H10.3888C11.2383 28.0182 11.9287 27.3378 11.9349 26.4944L11.9685 26.4833Z" fill="#EFF2F4"/>
</svg>
